<svg id="Capa_1" enable-background="new 0 0 511 511" height="512" viewBox="0 0 511 511" width="512" xmlns="http://www.w3.org/2000/svg"><g><g><g fill="#f1a673"><path d="m175.339 431.855h160.323v32.065h-160.323z"/><path d="m175.339 335.661h160.323v32.065h-160.323z"/><path d="m175.339 239.468h160.323v32.065h-160.323z"/><path d="m175.339 143.274h160.323v32.065h-160.323z"/><path d="m175.339 47.081h160.323v32.065h-160.323z"/><path d="m343.677 504h-16.032c-4.427 0-8.016-3.589-8.016-8.016v-480.968c0-4.427 3.589-8.016 8.016-8.016h16.032c4.427 0 8.016 3.589 8.016 8.016v480.968c.001 4.427-3.588 8.016-8.016 8.016z"/><path d="m183.355 504h-16.032c-4.427 0-8.016-3.589-8.016-8.016v-480.968c0-4.427 3.589-8.016 8.016-8.016h16.032c4.427 0 8.016 3.589 8.016 8.016v480.968c0 4.427-3.589 8.016-8.016 8.016z"/></g><path d="m191.371 47.081h24.048v32.065h-24.048z" fill="#df976c"/><path d="m191.371 143.274h24.048v32.065h-24.048z" fill="#df976c"/><path d="m191.371 239.468h24.048v32.065h-24.048z" fill="#df976c"/><path d="m191.371 335.661h24.048v32.065h-24.048z" fill="#df976c"/><path d="m191.371 431.855h24.048v32.065h-24.048z" fill="#df976c"/></g><path d="m343.5 0h-16c-8.547 0-15.5 6.953-15.5 15.5v24.5h-113v-24.5c0-8.547-6.953-15.5-15.5-15.5h-16c-8.547 0-15.5 6.953-15.5 15.5v480c0 8.547 6.953 15.5 15.5 15.5h16c8.547 0 15.5-6.953 15.5-15.5v-24.5h113v24.5c0 8.547 6.953 15.5 15.5 15.5h16c8.547 0 15.5-6.953 15.5-15.5v-480c0-8.547-6.953-15.5-15.5-15.5zm-144.5 232v-49h113v49zm113 15v17h-113v-17zm-113 32h113v49h-113zm113-111h-113v-17h113zm-113 175h113v17h-113zm113-288v17h-16.5c-4.142 0-7.5 3.358-7.5 7.5s3.358 7.5 7.5 7.5h16.5v49h-113v-49h64.5c4.142 0 7.5-3.358 7.5-7.5s-3.358-7.5-7.5-7.5h-64.5v-17zm-128 440.5c0 .275-.224.5-.5.5h-16c-.276 0-.5-.225-.5-.5v-480c0-.276.224-.5.5-.5h16c.276 0 .5.224.5.5v368c0 4.142 3.358 7.5 7.5 7.5s7.5-3.358 7.5-7.5v-8.5h113v49h-113v-8.5c0-4.142-3.358-7.5-7.5-7.5s-7.5 3.358-7.5 7.5zm15-39.5v-17h113v17zm145 39.5c0 .275-.224.5-.5.5h-16c-.276 0-.5-.225-.5-.5v-480c0-.276.224-.5.5-.5h16c.276 0 .5.224.5.5z"/></g></svg>